# MagicaVoxel @ Ephtracy

# group
o 

# material
mtllib alpaca.mtl
usemtl palette

# normals
vn -1 0 0
vn 1 0 0
vn 0 0 1
vn 0 0 -1
vn 0 -1 0
vn 0 1 0

# texcoords
vt 0.00195313 0.5
vt 0.00585938 0.5
vt 0.0332031 0.5
vt 0.978516 0.5
vt 0.994141 0.5

# verts
v -0.5 0 1
v -0.5 0 0.8
v -0.5 0 -0.4
v -0.5 0 -0.6
v -0.5 0.7 0.8
v -0.5 0.7 -0.4
v -0.5 0.7 -0.6
v -0.5 0.7 -0.7
v -0.5 1.4 0.5
v -0.5 1.4 -0.7
v -0.5 2.5 0.8
v -0.5 2.5 0.5
v -0.5 2.7 1
v -0.5 2.7 0.8
v -0.4 1.8 1.2
v -0.4 1.8 1
v -0.4 2 1.2
v -0.4 2 1
v -0.3 2 1.2
v -0.3 2 1
v -0.3 2.1 1.2
v -0.3 2.1 1
v -0.2 1 -0.7
v -0.2 1 -0.8
v -0.2 1.2 -0.7
v -0.2 1.2 -0.8
v 0 0 1
v 0 0 0.8
v 0 0 -0.4
v 0 0 -0.6
v 0 0.7 1
v 0 0.7 0.8
v 0 0.7 -0.4
v 0 0.7 -0.6
v 0 2.5 1
v 0 2.5 0.8
v 0 2.7 1
v 0 2.7 0.8
v -0.3 0 1
v -0.3 0 0.8
v -0.3 0 -0.4
v -0.3 0 -0.6
v -0.3 0.7 1
v -0.3 0.7 0.8
v -0.3 0.7 -0.4
v -0.3 0.7 -0.6
v -0.3 2.5 1
v -0.3 2.5 0.8
v -0.3 2.7 1
v -0.3 2.7 0.8
v -0.1 1 -0.7
v -0.1 1 -0.8
v -0.1 1.2 -0.7
v -0.1 1.2 -0.8
v 0 2 1.2
v 0 2 1
v 0 2.1 1.2
v 0 2.1 1
v 0.1 1.8 1.2
v 0.1 1.8 1
v 0.1 2 1.2
v 0.1 2 1
v 0.2 0 1
v 0.2 0 0.8
v 0.2 0 -0.4
v 0.2 0 -0.6
v 0.2 0.7 0.8
v 0.2 0.7 -0.4
v 0.2 0.7 -0.6
v 0.2 0.7 -0.7
v 0.2 1.4 0.5
v 0.2 1.4 -0.7
v 0.2 2.5 0.8
v 0.2 2.5 0.5
v 0.2 2.7 1
v 0.2 2.7 0.8
v -0.4 1.8 1.2
v -0.4 2 1.2
v -0.3 2 1.2
v -0.3 2.1 1.2
v 0 2 1.2
v 0 2.1 1.2
v 0.1 1.8 1.2
v 0.1 2 1.2
v -0.5 0 1
v -0.5 2.7 1
v -0.4 1.8 1
v -0.4 2 1
v -0.4 2.4 1
v -0.3 0 1
v -0.3 0.7 1
v -0.3 2 1
v -0.3 2.1 1
v -0.3 2.2 1
v -0.3 2.3 1
v -0.3 2.5 1
v -0.3 2.7 1
v -0.2 2.1 1
v -0.2 2.2 1
v -0.2 2.3 1
v -0.1 2.1 1
v -0.1 2.2 1
v -0.1 2.3 1
v 0 0 1
v 0 0.7 1
v 0 2 1
v 0 2.1 1
v 0 2.2 1
v 0 2.3 1
v 0 2.5 1
v 0 2.7 1
v 0.1 1.8 1
v 0.1 2 1
v 0.1 2.4 1
v 0.2 0 1
v 0.2 2.7 1
v -0.5 0 -0.4
v -0.5 0.7 -0.4
v -0.3 0 -0.4
v -0.3 0.7 -0.4
v 0 0 -0.4
v 0 0.7 -0.4
v 0.2 0 -0.4
v 0.2 0.7 -0.4
v -0.5 0 0.8
v -0.5 0.7 0.8
v -0.5 2.5 0.8
v -0.5 2.7 0.8
v -0.3 0 0.8
v -0.3 0.7 0.8
v -0.3 2.5 0.8
v -0.3 2.7 0.8
v 0 0 0.8
v 0 0.7 0.8
v 0 2.5 0.8
v 0 2.7 0.8
v 0.2 0 0.8
v 0.2 0.7 0.8
v 0.2 2.5 0.8
v 0.2 2.7 0.8
v -0.5 1.4 0.5
v -0.5 2.5 0.5
v 0.2 1.4 0.5
v 0.2 2.5 0.5
v -0.5 0 -0.6
v -0.5 0.7 -0.6
v -0.3 0 -0.6
v -0.3 0.7 -0.6
v 0 0 -0.6
v 0 0.7 -0.6
v 0.2 0 -0.6
v 0.2 0.7 -0.6
v -0.5 0.7 -0.7
v -0.5 1.4 -0.7
v -0.2 1 -0.7
v -0.2 1.2 -0.7
v -0.1 1 -0.7
v -0.1 1.2 -0.7
v 0.2 0.7 -0.7
v 0.2 1.4 -0.7
v -0.2 1 -0.8
v -0.2 1.2 -0.8
v -0.1 1 -0.8
v -0.1 1.2 -0.8
v -0.5 0 1
v -0.3 0 1
v 0 0 1
v 0.2 0 1
v -0.5 0 0.8
v -0.3 0 0.8
v 0 0 0.8
v 0.2 0 0.8
v -0.5 0 -0.4
v -0.3 0 -0.4
v 0 0 -0.4
v 0.2 0 -0.4
v -0.5 0 -0.6
v -0.3 0 -0.6
v 0 0 -0.6
v 0.2 0 -0.6
v -0.3 0.7 1
v 0 0.7 1
v -0.5 0.7 0.8
v -0.3 0.7 0.8
v 0 0.7 0.8
v 0.2 0.7 0.8
v -0.5 0.7 -0.4
v -0.3 0.7 -0.4
v 0 0.7 -0.4
v 0.2 0.7 -0.4
v -0.5 0.7 -0.6
v -0.3 0.7 -0.6
v 0 0.7 -0.6
v 0.2 0.7 -0.6
v -0.5 0.7 -0.7
v 0.2 0.7 -0.7
v -0.2 1 -0.7
v -0.1 1 -0.7
v -0.2 1 -0.8
v -0.1 1 -0.8
v -0.4 1.8 1.2
v 0.1 1.8 1.2
v -0.4 1.8 1
v 0.1 1.8 1
v -0.2 1.2 -0.7
v -0.1 1.2 -0.7
v -0.2 1.2 -0.8
v -0.1 1.2 -0.8
v -0.5 1.4 0.5
v 0.2 1.4 0.5
v -0.5 1.4 -0.7
v 0.2 1.4 -0.7
v -0.4 2 1.2
v -0.3 2 1.2
v 0 2 1.2
v 0.1 2 1.2
v -0.4 2 1
v -0.3 2 1
v 0 2 1
v 0.1 2 1
v -0.3 2.1 1.2
v 0 2.1 1.2
v -0.3 2.1 1
v -0.2 2.1 1
v -0.1 2.1 1
v 0 2.1 1
v -0.3 2.5 1
v 0 2.5 1
v -0.5 2.5 0.8
v -0.3 2.5 0.8
v 0 2.5 0.8
v 0.2 2.5 0.8
v -0.5 2.5 0.5
v 0.2 2.5 0.5
v -0.5 2.7 1
v -0.3 2.7 1
v 0 2.7 1
v 0.2 2.7 1
v -0.5 2.7 0.8
v -0.3 2.7 0.8
v 0 2.7 0.8
v 0.2 2.7 0.8

# faces
f 5/1/1 2/1/1 1/1/1
f 6/1/1 4/1/1 3/1/1
f 7/1/1 4/1/1 6/1/1
f 9/1/1 6/1/1 5/1/1
f 9/1/1 8/1/1 7/1/1
f 9/1/1 7/1/1 6/1/1
f 10/1/1 8/1/1 9/1/1
f 11/1/1 5/1/1 1/1/1
f 11/1/1 9/1/1 5/1/1
f 12/1/1 9/1/1 11/1/1
f 13/1/1 11/1/1 1/1/1
f 14/1/1 11/1/1 13/1/1
f 17/2/1 16/2/1 15/2/1
f 18/2/1 16/2/1 17/2/1
f 21/2/1 20/2/1 19/2/1
f 22/2/1 20/2/1 21/2/1
f 25/1/1 24/1/1 23/1/1
f 26/1/1 24/1/1 25/1/1
f 31/1/1 28/1/1 27/1/1
f 32/1/1 28/1/1 31/1/1
f 33/1/1 30/1/1 29/1/1
f 34/1/1 30/1/1 33/1/1
f 37/1/1 36/1/1 35/1/1
f 38/1/1 36/1/1 37/1/1
f 39/1/2 40/1/2 43/1/2
f 43/1/2 40/1/2 44/1/2
f 41/1/2 42/1/2 45/1/2
f 45/1/2 42/1/2 46/1/2
f 47/1/2 48/1/2 49/1/2
f 49/1/2 48/1/2 50/1/2
f 51/1/2 52/1/2 53/1/2
f 53/1/2 52/1/2 54/1/2
f 55/2/2 56/2/2 57/2/2
f 57/2/2 56/2/2 58/2/2
f 59/2/2 60/2/2 61/2/2
f 61/2/2 60/2/2 62/2/2
f 63/1/2 64/1/2 67/1/2
f 65/1/2 66/1/2 68/1/2
f 68/1/2 66/1/2 69/1/2
f 67/1/2 68/1/2 71/1/2
f 69/1/2 70/1/2 71/1/2
f 68/1/2 69/1/2 71/1/2
f 71/1/2 70/1/2 72/1/2
f 63/1/2 67/1/2 73/1/2
f 67/1/2 71/1/2 73/1/2
f 73/1/2 71/1/2 74/1/2
f 63/1/2 73/1/2 75/1/2
f 75/1/2 73/1/2 76/1/2
f 79/2/3 78/2/3 77/2/3
f 81/2/3 79/2/3 77/2/3
f 81/2/3 80/2/3 79/2/3
f 82/2/3 80/2/3 81/2/3
f 83/2/3 81/2/3 77/2/3
f 84/2/3 81/2/3 83/2/3
f 87/1/3 86/1/3 85/1/3
f 88/1/3 86/1/3 87/1/3
f 89/1/3 86/1/3 88/1/3
f 90/1/3 87/1/3 85/1/3
f 91/1/3 87/1/3 90/1/3
f 92/2/3 89/2/3 88/2/3
f 93/2/3 89/2/3 92/2/3
f 94/2/3 89/2/3 93/2/3
f 95/2/3 89/2/3 94/2/3
f 96/1/3 86/1/3 89/1/3
f 97/1/3 86/1/3 96/1/3
f 98/4/3 94/4/3 93/4/3
f 99/5/3 95/5/3 94/5/3
f 99/4/3 94/4/3 98/4/3
f 100/2/3 89/2/3 95/2/3
f 100/5/3 95/5/3 99/5/3
f 101/2/3 99/2/3 98/2/3
f 101/2/3 100/2/3 99/2/3
f 102/2/3 100/2/3 101/2/3
f 103/2/3 89/2/3 100/2/3
f 103/2/3 100/2/3 102/2/3
f 105/1/3 87/1/3 91/1/3
f 107/4/3 102/4/3 101/4/3
f 108/5/3 103/5/3 102/5/3
f 108/4/3 102/4/3 107/4/3
f 109/2/3 89/2/3 103/2/3
f 109/5/3 103/5/3 108/5/3
f 110/1/3 96/1/3 89/1/3
f 112/1/3 105/1/3 104/1/3
f 112/1/3 87/1/3 105/1/3
f 113/2/3 108/2/3 107/2/3
f 113/2/3 107/2/3 106/2/3
f 113/2/3 109/2/3 108/2/3
f 114/1/3 111/1/3 110/1/3
f 114/2/3 89/2/3 109/2/3
f 114/2/3 109/2/3 113/2/3
f 114/1/3 110/1/3 89/1/3
f 115/1/3 113/1/3 112/1/3
f 115/1/3 112/1/3 104/1/3
f 115/1/3 114/1/3 113/1/3
f 116/1/3 111/1/3 114/1/3
f 116/1/3 114/1/3 115/1/3
f 119/1/3 118/1/3 117/1/3
f 120/1/3 118/1/3 119/1/3
f 123/1/3 122/1/3 121/1/3
f 124/1/3 122/1/3 123/1/3
f 125/1/4 126/1/4 129/1/4
f 129/1/4 126/1/4 130/1/4
f 127/1/4 128/1/4 131/1/4
f 131/1/4 128/1/4 132/1/4
f 133/1/4 134/1/4 137/1/4
f 137/1/4 134/1/4 138/1/4
f 135/1/4 136/1/4 139/1/4
f 139/1/4 136/1/4 140/1/4
f 141/1/4 142/1/4 143/1/4
f 143/1/4 142/1/4 144/1/4
f 145/1/4 146/1/4 147/1/4
f 147/1/4 146/1/4 148/1/4
f 149/1/4 150/1/4 151/1/4
f 151/1/4 150/1/4 152/1/4
f 153/1/4 154/1/4 155/1/4
f 155/1/4 154/1/4 156/1/4
f 153/1/4 155/1/4 157/1/4
f 156/1/4 154/1/4 158/1/4
f 153/1/4 157/1/4 159/1/4
f 157/1/4 158/1/4 159/1/4
f 158/1/4 154/1/4 160/1/4
f 159/1/4 158/1/4 160/1/4
f 161/1/4 162/1/4 163/1/4
f 163/1/4 162/1/4 164/1/4
f 169/1/5 166/1/5 165/1/5
f 170/1/5 166/1/5 169/1/5
f 171/1/5 168/1/5 167/1/5
f 172/1/5 168/1/5 171/1/5
f 177/1/5 174/1/5 173/1/5
f 178/1/5 174/1/5 177/1/5
f 179/1/5 176/1/5 175/1/5
f 180/1/5 176/1/5 179/1/5
f 184/1/5 182/1/5 181/1/5
f 185/1/5 182/1/5 184/1/5
f 187/1/5 184/1/5 183/1/5
f 187/1/5 186/1/5 185/1/5
f 187/1/5 185/1/5 184/1/5
f 188/1/5 186/1/5 187/1/5
f 189/1/5 186/1/5 188/1/5
f 190/1/5 186/1/5 189/1/5
f 192/1/5 189/1/5 188/1/5
f 193/1/5 189/1/5 192/1/5
f 195/1/5 192/1/5 191/1/5
f 195/1/5 194/1/5 193/1/5
f 195/1/5 193/1/5 192/1/5
f 196/1/5 194/1/5 195/1/5
f 199/1/5 198/1/5 197/1/5
f 200/1/5 198/1/5 199/1/5
f 203/2/5 202/2/5 201/2/5
f 204/2/5 202/2/5 203/2/5
f 205/1/6 206/1/6 207/1/6
f 207/1/6 206/1/6 208/1/6
f 209/1/6 210/1/6 211/1/6
f 211/1/6 210/1/6 212/1/6
f 213/2/6 214/2/6 217/2/6
f 217/2/6 214/2/6 218/2/6
f 215/2/6 216/2/6 219/2/6
f 219/2/6 216/2/6 220/2/6
f 221/2/6 222/2/6 223/2/6
f 223/2/6 222/2/6 224/2/6
f 224/2/6 222/2/6 225/2/6
f 225/2/6 222/2/6 226/2/6
f 227/1/6 228/1/6 230/1/6
f 230/1/6 228/1/6 231/1/6
f 229/1/6 230/1/6 233/1/6
f 231/1/6 232/1/6 233/1/6
f 230/1/6 231/1/6 233/1/6
f 233/1/6 232/1/6 234/1/6
f 235/1/6 236/1/6 239/1/6
f 239/1/6 236/1/6 240/1/6
f 237/1/6 238/1/6 241/1/6
f 241/1/6 238/1/6 242/1/6
